Coordinates
version=1
nRows=38
nColumns=12
inDegrees=yes

Units are S.I. units (second, meters, Newtons, ...)
Angles are in degrees

endheader
time	SC_y	SC_z	SC_x	AC_y	AC_z	AC_x	GH_y	GH_z	GH_yy	EL_x	PS_y
       0.0              -40.25          15.74          52.91          43.12         -7.075           9.35          173.8          76.45          -34.5          130.9          62.61
   0.02969              -40.25          15.74          52.91          43.12         -7.074          9.348          173.7          76.43         -34.47          130.9          62.61
   0.05939              -40.24          15.74          52.91          43.12         -7.074          9.347          173.7          76.42         -34.44          130.8          62.61
   0.08908              -40.24          15.74           52.9          43.12         -7.073          9.346          173.6          76.41          -34.4          130.8           62.6
    0.1188              -40.24          15.73           52.9          43.12         -7.073          9.344          173.6          76.39         -34.37          130.8           62.6
    0.1485              -40.23          15.73           52.9          43.12         -7.072          9.343          173.5          76.38         -34.33          130.8           62.6
    0.1782              -40.23          15.73           52.9          43.12         -7.072          9.341          173.5          76.36         -34.29          130.8          62.59
    0.2079              -40.22          15.73          52.89          43.11         -7.071          9.339          173.4          76.34         -34.25          130.7          62.59
    0.2376              -40.22          15.73          52.89          43.11          -7.07          9.337          173.4          76.32          -34.2          130.7          62.58
    0.2672              -40.21          15.73          52.89          43.11         -7.069          9.335          173.3           76.3         -34.15          130.7          62.58
    0.2969              -40.21          15.73          52.88          43.11         -7.069          9.333          173.2          76.27         -34.09          130.6          62.57
    0.3266               -40.2          15.73          52.88          43.11         -7.068          9.331          173.1          76.25         -34.04          130.6          62.56
    0.3563               -40.2          15.73          52.88           43.1         -7.067          9.328          173.1          76.22         -33.97          130.6          62.56
     0.386              -40.19          15.72          52.87           43.1         -7.066          9.325          173.0          76.19         -33.91          130.5          62.55
    0.4157              -40.18          15.72          52.87           43.1         -7.065          9.322          172.9          76.16         -33.83          130.5          62.54
    0.4454              -40.17          15.72          52.86           43.1         -7.064          9.319          172.8          76.13         -33.75          130.4          62.53
    0.4751              -40.16          15.72          52.86          43.09         -7.062          9.316          172.6          76.09         -33.67          130.4          62.52
    0.5048              -40.16          15.72          52.85          43.09         -7.061          9.312          172.5          76.05         -33.57          130.3          62.51
    0.5345              -40.14          15.71          52.85          43.08          -7.06          9.308          172.4          76.01         -33.47          130.3           62.5
    0.5642              -40.13          15.71          52.84          43.08         -7.058          9.303          172.2          75.96         -33.36          130.2          62.49
    0.5939              -40.12          15.71          52.83          43.08         -7.056          9.298          172.1          75.91         -33.24          130.1          62.48
    0.6236              -40.11           15.7          52.82          43.07         -7.054          9.292          171.9          75.85          -33.1          130.0          62.46
    0.6533              -40.09           15.7          52.81          43.06         -7.052          9.286          171.7          75.78         -32.95          130.0          62.45
     0.683              -40.07           15.7           52.8          43.06         -7.049           9.28          171.5          75.71         -32.79          129.9          62.43
    0.7127              -40.06          15.69          52.79          43.05         -7.047          9.272          171.2          75.63          -32.6          129.7          62.41
    0.7424              -40.03          15.69          52.78          43.04         -7.044          9.264          171.0          75.55          -32.4          129.6          62.39
     0.772              -40.01          15.68          52.76          43.03          -7.04          9.254          170.7          75.45         -32.17          129.5          62.36
    0.8017              -39.98          15.68          52.75          43.02         -7.036          9.244          170.3          75.34         -31.91          129.3          62.33
    0.8314              -39.95          15.67          52.73          43.01         -7.032          9.232          169.9          75.21         -31.61          129.2           62.3
    0.8611              -39.92          15.66          52.71           43.0         -7.027          9.218          169.5          75.07         -31.28          129.0          62.26
    0.8908              -39.88          15.65          52.69          42.99         -7.022          9.202          169.0          74.91          -30.9          128.7          62.22
    0.9205              -39.84          15.64          52.66          42.97         -7.015          9.185          168.4          74.72         -30.47          128.5          62.18
    0.9502              -39.79          15.63          52.63          42.95         -7.008          9.164          167.7           74.5         -29.96          128.2          62.12
    0.9799              -39.73          15.62          52.59          42.93         -6.999           9.14          166.9          74.25         -29.38          127.8          62.06
      1.01              -39.66           15.6          52.55           42.9         -6.989          9.112          166.0          73.96          -28.7          127.4          61.98
     1.039              -39.57          15.58           52.5          42.87         -6.977          9.079          165.0          73.61         -27.89          126.9           61.9
     1.069              -39.48          15.56          52.44          42.83         -6.963           9.04          163.7           73.2         -26.93          126.4          61.79
     1.099              -39.36          15.53          52.37          42.79         -6.946          8.993          162.2          72.71         -25.78          125.7          61.67
